<?xml version="1.0" standalone="no"?>
<!DOCTYPE svg PUBLIC "-//W3C//DTD SVG 20010904//EN"
 "http://www.w3.org/TR/2001/REC-SVG-20010904/DTD/svg10.dtd">
<svg version="1.0" xmlns="http://www.w3.org/2000/svg"
 width="625.000000pt" height="625.000000pt" viewBox="0 0 625.000000 625.000000"
 preserveAspectRatio="xMidYMid meet">
<metadata>
Created by potrace 1.11, written by Peter Selinger 2001-2013
</metadata>
<g transform="translate(0.000000,625.000000) scale(0.100000,-0.100000)"
fill="#000000" stroke="none">
<path d="M1482 5297 c-61 -28 -82 -130 -42 -212 29 -60 70 -90 182 -131 200
-75 316 -160 354 -260 25 -67 43 -94 64 -94 38 0 39 53 5 184 -45 173 -97 275
-187 363 -68 67 -87 82 -165 120 -78 39 -166 51 -211 30z"/>
<path d="M1390 4837 c-63 -21 -100 -50 -122 -96 -63 -131 21 -213 200 -195
176 18 267 0 372 -74 30 -20 71 -63 92 -94 50 -73 72 -70 63 6 -19 148 -103
275 -246 374 -47 32 -126 67 -176 78 -55 11 -149 12 -183 1z"/>
<path d="M2450 4817 c-177 -42 -310 -185 -355 -381 -20 -87 -17 -158 8 -162
11 -1 24 10 37 35 46 90 147 146 265 145 67 0 173 -12 186 -20 4 -2 24 -6 45
-10 22 -3 57 -9 79 -13 177 -33 255 80 168 241 -73 133 -261 205 -433 165z"/>
<path d="M1868 4245 c-2 -1 -46 -5 -98 -9 -113 -7 -139 -11 -250 -38 -218 -53
-421 -181 -527 -334 -51 -72 -114 -221 -128 -299 -2 -16 -7 -40 -9 -53 -30
-148 -25 -583 9 -762 3 -14 7 -41 10 -60 22 -140 102 -362 169 -472 68 -113
106 -154 171 -186 115 -57 374 -126 559 -147 28 -4 52 -8 56 -10 3 -2 37 -6
75 -10 39 -4 81 -8 95 -11 157 -25 840 -25 978 1 10 1 52 6 95 10 43 3 88 8
100 10 12 2 49 6 82 10 82 9 114 13 229 31 54 9 101 12 105 8 7 -10 74 -55
124 -83 90 -50 217 -78 289 -64 33 6 33 9 4 163 -8 41 -14 75 -13 75 23 4 180
94 237 136 102 75 257 230 320 319 14 19 30 39 37 45 10 8 149 216 219 327 11
18 27 32 35 31 7 -1 47 -15 88 -32 67 -28 169 -58 261 -77 85 -16 237 -14 308
6 104 29 182 77 182 112 0 18 -8 22 -47 18 -36 -2 -68 20 -185 136 -126 123
-190 162 -273 166 -63 3 -131 -8 -199 -32 l-54 -18 6 64 c5 73 -7 130 -50 223
-40 85 -90 145 -170 204 -24 18 -48 49 -65 87 -18 39 -33 59 -43 58 -23 -5
-78 -94 -97 -157 -16 -57 -22 -181 -10 -236 3 -16 9 -43 12 -59 3 -16 25 -68
47 -115 70 -145 57 -213 -68 -337 -91 -91 -126 -104 -189 -74 -57 28 -103 81
-167 195 -110 195 -313 425 -508 577 -88 68 -277 194 -365 244 -78 43 -273
139 -345 168 -36 15 -78 33 -95 41 -108 48 -471 154 -585 170 -25 4 -65 10
-90 15 -25 5 -83 12 -130 15 -47 4 -97 8 -112 10 -15 1 -29 1 -30 0z"/>
</g>
</svg>
